<svg xmlns="http://www.w3.org/2000/svg" width="162" height="33" fill="none" viewBox="0 0 162 33">
  <path fill="url(#a)" fill-rule="evenodd" d="M16.99 2.69a4 4 0 0 0-4 0L4 7.88a4 4 0 0 0-2 3.465v10.381a4 4 0 0 0 2 3.464l8.99 5.19a4 4 0 0 0 4 0l8.99-5.19a4 4 0 0 0 2-3.464V11.345a4 4 0 0 0-2-3.464l-8.99-5.19Zm-1 4.423a2 2 0 0 0-2 0l-6.66 3.845a2 2 0 0 0-1 1.732v7.69a2 2 0 0 0 1 1.733l6.66 3.845a2 2 0 0 0 2 0l6.66-3.845a2 2 0 0 0 1-1.732v-7.69a2 2 0 0 0-1-1.733l-6.66-3.845Z" clip-rule="evenodd"/>
  <path fill="url(#b)" d="M44.188 10.335c.118 0 .22.043.304.128a.415.415 0 0 1 .129.304V13.2a.416.416 0 0 1-.129.304.416.416 0 0 1-.303.128H37.9v1.024h5.247c.118 0 .22.043.304.128a.415.415 0 0 1 .129.304v2.416a.416.416 0 0 1-.129.304.416.416 0 0 1-.303.128H37.9v3.168a.416.416 0 0 1-.129.304.416.416 0 0 1-.303.128h-3.456a.415.415 0 0 1-.304-.128.415.415 0 0 1-.129-.304V10.767c0-.117.043-.218.129-.304a.415.415 0 0 1 .303-.128h10.176Zm10.362 7.92h2.896c.118 0 .219.043.304.128a.415.415 0 0 1 .128.304v2.416a.415.415 0 0 1-.128.304.415.415 0 0 1-.304.128H47.302a.416.416 0 0 1-.304-.128.416.416 0 0 1-.128-.304v-2.416c0-.117.043-.219.128-.304a.415.415 0 0 1 .304-.128h2.928v-4.64h-2.928a.416.416 0 0 1-.304-.128.416.416 0 0 1-.128-.304v-2.416c0-.117.043-.218.128-.304a.415.415 0 0 1 .304-.128h10.144c.118 0 .219.043.304.128a.415.415 0 0 1 .128.304v2.416a.415.415 0 0 1-.128.304.415.415 0 0 1-.304.128H54.55v4.64Zm15.994-2.56c.416.128.773.41 1.072.848.299.427.448.918.448 1.472 0 1.184-.384 2.07-1.152 2.656-.768.576-1.888.864-3.36.864H60.96a.415.415 0 0 1-.304-.128.415.415 0 0 1-.128-.304V10.767c0-.117.043-.218.128-.304a.415.415 0 0 1 .304-.128h6.432c1.515 0 2.63.277 3.344.832.725.544 1.088 1.37 1.088 2.48v.048c0 .512-.139.95-.416 1.312-.277.363-.565.592-.864.688Zm-3.056-1.904a.743.743 0 0 0-.176-.496c-.107-.139-.267-.208-.48-.208h-2.144v1.456h2.144c.213 0 .373-.074.48-.224a.873.873 0 0 0 .176-.528Zm-.48 4.992c.245 0 .427-.08.544-.24a.913.913 0 0 0 .192-.56v-.016a.75.75 0 0 0-.208-.528.658.658 0 0 0-.528-.224h-2.32v1.568h2.32Zm17.738-.368c.117 0 .218.043.304.128a.415.415 0 0 1 .128.304v2.256a.415.415 0 0 1-.128.304.415.415 0 0 1-.304.128H74.634a.416.416 0 0 1-.304-.128.416.416 0 0 1-.128-.304V10.767c0-.117.042-.218.128-.304a.415.415 0 0 1 .304-.128h9.952c.117 0 .218.043.304.128a.415.415 0 0 1 .128.304v2.256a.415.415 0 0 1-.128.304.415.415 0 0 1-.304.128h-6.224v1.008h5.344c.117 0 .218.043.304.128a.415.415 0 0 1 .128.304v2.08a.415.415 0 0 1-.128.304.415.415 0 0 1-.304.128h-5.344v1.008h6.384Zm14.761 2.624c.022.043.032.09.032.144a.353.353 0 0 1-.112.256.326.326 0 0 1-.24.096h-3.632a.812.812 0 0 1-.416-.112.663.663 0 0 1-.255-.288l-1.409-3.168h-1.343v3.136a.416.416 0 0 1-.129.304.416.416 0 0 1-.303.128h-3.457a.415.415 0 0 1-.303-.128.415.415 0 0 1-.129-.304V10.767c0-.117.043-.218.128-.304a.415.415 0 0 1 .305-.128h6.224c.96 0 1.797.155 2.511.464.726.31 1.28.758 1.665 1.344.383.587.575 1.275.575 2.064 0 1.45-.56 2.502-1.68 3.152l1.968 3.68Zm-5.376-6.032c.235 0 .416-.075.544-.224a.918.918 0 0 0 .193-.592.984.984 0 0 0-.192-.608c-.118-.181-.3-.272-.544-.272h-2v1.696h2Zm13.498-.608c1.174.128 2.112.336 2.816.624.715.288 1.232.667 1.552 1.136.32.47.48 1.056.48 1.76 0 .768-.25 1.44-.752 2.016-.49.566-1.173 1.003-2.048 1.312-.874.299-1.872.448-2.992.448-1.248 0-2.304-.154-3.168-.464-.864-.31-1.509-.72-1.936-1.232-.426-.522-.64-1.093-.64-1.712 0-.107.032-.192.096-.256a.406.406 0 0 1 .272-.096h3.28c.224 0 .406.07.544.208.182.17.384.288.608.352.224.053.539.08.944.08 1.014 0 1.52-.154 1.52-.464 0-.128-.069-.235-.208-.32-.128-.096-.362-.176-.704-.24a14.89 14.89 0 0 0-1.472-.224c-1.461-.17-2.581-.533-3.36-1.088-.778-.565-1.168-1.36-1.168-2.384 0-.725.219-1.365.656-1.92.438-.555 1.056-.987 1.856-1.296.811-.31 1.75-.464 2.816-.464 1.11 0 2.08.176 2.912.528.832.341 1.467.768 1.904 1.28.438.512.656 1.013.656 1.504a.32.32 0 0 1-.112.256c-.064.064-.154.096-.272.096h-3.44a.746.746 0 0 1-.496-.192 1.36 1.36 0 0 0-.416-.256c-.16-.064-.405-.096-.736-.096-.714 0-1.072.15-1.072.448 0 .16.139.288.416.384.278.085.832.176 1.664.272Zm19.146-4.064c1.003 0 1.877.17 2.624.512.747.341 1.317.806 1.712 1.392.395.587.592 1.243.592 1.968 0 1.195-.373 2.133-1.12 2.816-.747.672-2.016 1.008-3.808 1.008h-2.112v3.072a.417.417 0 0 1-.128.304.415.415 0 0 1-.304.128h-3.44a.415.415 0 0 1-.304-.128.417.417 0 0 1-.128-.304V10.767c0-.117.043-.218.128-.304a.415.415 0 0 1 .304-.128h5.984Zm-.064 4.736c.256 0 .459-.075.608-.224.149-.16.224-.368.224-.624 0-.267-.075-.485-.224-.656-.149-.17-.352-.256-.608-.256h-2.032v1.76h2.032Zm17.546-4.736c.117 0 .218.043.304.128a.416.416 0 0 1 .128.304v2.576a.417.417 0 0 1-.128.304.417.417 0 0 1-.304.128h-3.44v7.328a.417.417 0 0 1-.128.304.417.417 0 0 1-.304.128h-3.296a.414.414 0 0 1-.304-.128.413.413 0 0 1-.128-.304v-7.328h-3.44a.414.414 0 0 1-.304-.128.413.413 0 0 1-.128-.304v-2.576c0-.117.042-.218.128-.304a.413.413 0 0 1 .304-.128h11.04Zm13.257 8.08c.118 0 .219.043.304.128a.413.413 0 0 1 .128.304v2.256a.413.413 0 0 1-.128.304.414.414 0 0 1-.304.128h-10.112a.417.417 0 0 1-.304-.128.417.417 0 0 1-.128-.304V10.767c0-.117.043-.218.128-.304a.417.417 0 0 1 .304-.128h9.952c.118 0 .219.043.304.128a.413.413 0 0 1 .128.304v2.256a.413.413 0 0 1-.128.304.414.414 0 0 1-.304.128h-6.224v1.008h5.344c.118 0 .219.043.304.128a.413.413 0 0 1 .128.304v2.08a.413.413 0 0 1-.128.304.414.414 0 0 1-.304.128h-5.344v1.008h6.384Z"/>
  <path fill="#000" d="M144.008 29.36c.059 0 .109.021.152.064a.206.206 0 0 1 .064.152v1.208c0 .059-.021.11-.064.152a.208.208 0 0 1-.152.064h-4.672a.208.208 0 0 1-.152-.064.206.206 0 0 1-.064-.152v-5.168c0-.059.021-.11.064-.152a.208.208 0 0 1 .152-.064h1.728c.059 0 .109.021.152.064a.206.206 0 0 1 .064.152v3.744h2.728Zm6.949-3.96c.059 0 .109.021.152.064a.206.206 0 0 1 .064.152v1.288c0 .059-.021.11-.064.152a.208.208 0 0 1-.152.064h-1.72v3.664c0 .059-.021.11-.064.152a.208.208 0 0 1-.152.064h-1.648a.208.208 0 0 1-.152-.064.206.206 0 0 1-.064-.152V27.12h-1.72a.208.208 0 0 1-.152-.064.206.206 0 0 1-.064-.152v-1.288c0-.059.021-.11.064-.152a.208.208 0 0 1 .152-.064h5.52Zm4.013 0c.901 0 1.621.195 2.16.584.544.39.816.992.816 1.808v.816c0 .832-.27 1.44-.808 1.824-.534.379-1.256.568-2.168.568h-2.552a.206.206 0 0 1-.152-.064.206.206 0 0 1-.064-.152v-5.168c0-.059.021-.11.064-.152a.206.206 0 0 1 .152-.064h2.552Zm.04 4.04c.25 0 .448-.059.592-.176a.627.627 0 0 0 .224-.512v-1.104c0-.219-.075-.387-.224-.504-.144-.123-.342-.184-.592-.184h-.728v2.48h.728Z"/>
  <defs>
    <linearGradient id="a" x1="14.99" x2="14.99" y1="1.695" y2="31.376" gradientUnits="userSpaceOnUse">
      <stop stop-color="#FF1856"/>
      <stop offset=".547" stop-color="#FF4C7C"/>
    </linearGradient>
    <linearGradient id="b" x1="95.981" x2="95.981" y1="6.216" y2="26.854" gradientUnits="userSpaceOnUse">
      <stop stop-color="#FF1856"/>
      <stop offset=".547" stop-color="#FF4C7C"/>
    </linearGradient>
  </defs>
</svg>
