<svg xmlns="http://www.w3.org/2000/svg" width="23" height="16" fill="none" viewBox="0 0 23 16">
  <rect width="22.4" height="16" fill="#fff" rx="1.6"/>
  <mask id="a" width="23" height="16" x="0" y="0" maskUnits="userSpaceOnUse" style="mask-type:luminance">
    <rect width="22.4" height="16" fill="#fff" rx="1.6"/>
  </mask>
  <g mask="url(#a)">
    <path fill="#F1361D" d="M0 0h22.4v16H0z"/>
    <path fill="#FFDC42" fill-rule="evenodd" d="m8.058 2.48.775.133.58.53.133-.776.53-.58-.776-.133-.58-.529-.133.775-.529.58Zm2.075 2.71.672-.408.785.018-.408-.671.018-.786-.671.408-.786-.018.409.672-.019.785Zm-.91 4.387-.657.431-.01-.785-.431-.657.786-.01.656-.431.01.786.431.656-.785.01Zm.57-2.032.781-.086.704.348-.086-.78.348-.705-.78.086-.705-.348.086.78-.348.705Zm-4.46-.964-1.88 1.341.693-2.203L2.29 4.344l2.31-.02.733-2.19.734 2.19 2.31.02L6.52 5.72l.694 2.203-1.88-1.34Z" clip-rule="evenodd"/>
  </g>
</svg>
